<svg width="46" height="46" viewBox="0 0 46 46" fill="none" xmlns="http://www.w3.org/2000/svg">
<rect width="46" height="46" rx="6.64652" fill="url(#paint0_linear_699_1832)"/>
<path d="M10.6731 13.5888L10.7002 34.4443V36.4779C10.7002 36.4779 10.7174 38.329 11.4816 39.1178C12.2457 39.9065 13.1749 40.2294 13.7098 40.2294H17.1015C17.1015 40.2294 18.7949 40.1629 19.6083 39.1646C20.4218 38.1663 21.3905 37.067 21.25 34.0844C21.0897 30.6977 20.3552 29.4874 20.3552 29.4874C20.3552 29.4874 22.4307 30.9565 23.0346 33.8453C23.9712 38.3216 21.7996 40.2294 21.7996 40.2294L27.5552 40.2837C27.5552 40.2837 30.5845 40.2738 31.9476 39.7315C33.3107 39.1893 34.9129 38.048 35.4404 35.9972C36.207 33.0147 35.5144 30.8801 34.6738 29.2631C33.7988 27.582 32.2089 26.7095 32.2089 26.7095C32.2089 26.7095 30.5155 27.5722 27.7622 27.2739C23.6804 26.8302 22.438 24.703 22.438 24.703C22.438 24.703 25.2259 25.7136 28.9972 25.1664C32.7684 24.6192 34.8735 23.1107 36.2957 20.7912C37.3285 19.2507 37.0327 16.6477 36.5915 15.891C36.1947 15.2107 35.29 15.0086 33.9541 15.1614C32.6156 15.3142 31.2673 15.1417 29.0785 13.0958C26.8897 11.0524 24.3286 8.45932 19.951 9.12238C17.417 9.55374 16.823 9.74353 16.823 9.74353C16.823 9.74353 17.2223 7.52266 14.4 6.25816C12.1027 5.2303 9.69204 6.97052 9.20399 8.7699C8.8096 10.2168 8.88602 12.3859 10.678 13.5863L10.6731 13.5888Z" fill="white"/>
<path d="M18.7258 7.73217C18.7258 7.73217 21.7699 6.49725 23.7345 7.56948C23.7345 7.56948 24.1707 5.80708 22.5242 4.98133C20.498 3.96579 18.112 5.52361 18.7282 7.73217H18.7258Z" fill="white"/>
<path d="M28.221 17.7399C28.6934 17.7399 29.0764 16.9332 29.0764 15.9381C29.0764 14.9429 28.6934 14.1362 28.221 14.1362C27.7487 14.1362 27.3657 14.9429 27.3657 15.9381C27.3657 16.9332 27.7487 17.7399 28.221 17.7399Z" fill="#3D80F4"/>
<mask id="mask0_699_1832" style="mask-type:alpha" maskUnits="userSpaceOnUse" x="9" y="5" width="28" height="36">
<path d="M10.6731 13.5888L10.7002 34.4443V36.4779C10.7002 36.4779 10.7174 38.329 11.4816 39.1178C12.2457 39.9065 13.1749 40.2294 13.7098 40.2294H17.1015C17.1015 40.2294 18.7949 40.1629 19.6083 39.1646C20.4218 38.1663 21.3905 37.067 21.25 34.0844C21.0897 30.6977 20.3552 29.4874 20.3552 29.4874C20.3552 29.4874 22.4307 30.9565 23.0346 33.8453C23.9712 38.3216 21.7996 40.2294 21.7996 40.2294L27.5552 40.2837C27.5552 40.2837 30.5845 40.2738 31.9476 39.7315C33.3107 39.1893 34.9129 38.048 35.4404 35.9972C36.207 33.0147 35.5144 30.8801 34.6738 29.2631C33.7988 27.582 32.2089 26.7095 32.2089 26.7095C32.2089 26.7095 30.5155 27.5722 27.7622 27.2739C23.6804 26.8302 22.438 24.703 22.438 24.703C22.438 24.703 25.2259 25.7136 28.9972 25.1664C32.7684 24.6192 34.8735 23.1107 36.2957 20.7912C37.3285 19.2507 37.0327 16.6477 36.5915 15.891C36.1947 15.2107 35.29 15.0086 33.9541 15.1614C32.6156 15.3142 31.2673 15.1417 29.0785 13.0958C26.8897 11.0524 24.3286 8.45932 19.951 9.12238C17.417 9.55374 16.823 9.74353 16.823 9.74353C16.823 9.74353 17.2223 7.52266 14.4 6.25816C12.1027 5.2303 9.69204 6.97052 9.20399 8.7699C8.8096 10.2168 8.88602 12.3859 10.678 13.5863L10.6731 13.5888Z" fill="white"/>
</mask>
<g mask="url(#mask0_699_1832)">
<path d="M24.3958 41.8322C27.7446 35.6704 23.5028 29.7765 20.3843 29.542L21.5726 32.7111L20.7238 41.8322C21.7262 42.9654 23.4892 42.1809 24.3958 41.8322Z" fill="url(#paint1_linear_699_1832)"/>
</g>
<defs>
<linearGradient id="paint0_linear_699_1832" x1="23" y1="-4.29051e-07" x2="37.3966" y2="47.2204" gradientUnits="userSpaceOnUse">
<stop stop-color="#5393FB"/>
<stop offset="1" stop-color="#105BE7"/>
</linearGradient>
<linearGradient id="paint1_linear_699_1832" x1="26.2314" y1="35.9823" x2="21.8987" y2="34.1241" gradientUnits="userSpaceOnUse">
<stop stop-color="#B8D8FA"/>
<stop offset="1" stop-color="#4F9DF3"/>
</linearGradient>
</defs>
</svg>
